{"title":"Raajneeti (2010) 1/3 DVD5 Scr Rip Xvid AC3 E-Subs [Tikris]","uid":5616788,"size":1532254556,"categoryP":"video","categoryS":"movies","magnet":"?xt=urn:btih:62d4f665c6b90ee1d0e9073393ec1996f6bf71ef&amp;dn=Raajneeti+%282010%29+1%2F3+DVD5+Scr+Rip+Xvid+AC3+E-Subs+%5BTikris%5D&amp;tr=udp%3A%2F%2Ftracker.openbittorrent.com%3A80&amp;tr=udp%3A%2F%2Fopen.demonii.com%3A1337&amp;tr=udp%3A%2F%2Ftracker.coppersurfer.tk%3A6969&amp;tr=udp%3A%2F%2Fexodus.desync.com%3A6969","seeders":1,"leechers":0,"uploader":"luvwithromio","files":-1,"time":1276096528,"description":"Format                           : AVI\nFormat/Info                      : Audio Video Interleave\nFile size                        : 1.42 GiB\nDuration                         : 2h 40mn\nOverall bit rate                 : 1 271 Kbps\n\nVideo\nID                               : 0\nFormat                           : MPEG-4 Visual\nFormat profile                   : Advanced Simple@L5\nFormat settings, BVOP            : Yes\nFormat settings, QPel            : No\nFormat settings, GMC             : No warppoints\nFormat settings, Matrix          : Default (H.263)\nCodec ID                         : XVID\nCodec ID/Hint                    : XviD\nDuration                         : 2h 40mn\nBit rate                         : 1 132 Kbps\nWidth                            : 672 pixels\nHeight                           : 288 pixels\nDisplay aspect ratio             : 2.35:1\nFrame rate                       : 23.976 fps\nResolution                       : 8 bits\nColorimetry                      : 4:2:0\nScan type                        : Progressive\nBits/(Pixel*Frame)               : 0.244\nStream size                      : 1.27 GiB (89%)\nWriting library                  : XviD 1.1.2 (UTC 2006-11-01)\n\nAudio\nID                               : 1\nFormat                           : AC-3\nFormat/Info                      : Audio Coding 3\nFormat_Settings_ModeExtension    : CM (complete main)\nCodec ID                         : 2000\nDuration                         : 2h 40mn\nBit rate mode                    : Constant\nBit rate                         : 128 Kbps\nChannel(s)                       : 3 channels\nChannel positions                : Front: L C R\nSampling rate                    : 48.0 KHz\nResolution                       : 16 bits\nStream size                      : 147 MiB (10%)\nAlignment                        : Aligned on interleaves\nInterleave, duration             : 32 ms (0.77 video frame)","torrent":{"xt":"urn:btih:62d4f665c6b90ee1d0e9073393ec1996f6bf71ef","amp;dn":"Raajneeti+%282010%29+1%2F3+DVD5+Scr+Rip+Xvid+AC3+E-Subs+%5BTikris%5D","amp;tr":["udp%3A%2F%2Ftracker.openbittorrent.com%3A80","udp%3A%2F%2Fopen.demonii.com%3A1337","udp%3A%2F%2Ftracker.coppersurfer.tk%3A6969","udp%3A%2F%2Fexodus.desync.com%3A6969"],"infoHash":"62d4f665c6b90ee1d0e9073393ec1996f6bf71ef","infoHashBuffer":{"type":"Buffer","data":[98,212,246,101,198,185,14,225,208,233,7,51,147,236,25,150,246,191,113,239]},"announce":[],"urlList":[]}}